<svg width="420" height="87" viewBox="0 0 420 87" fill="none" xmlns="http://www.w3.org/2000/svg">
<path d="M76.0547 85H60.9727V31C60.9727 29.9453 60.7617 28.9609 60.3398 28.0469C59.9531 27.1328 59.4082 26.3418 58.7051 25.6738C58.0371 24.9707 57.2461 24.4258 56.332 24.0391C55.418 23.6523 54.4336 23.459 53.3789 23.459C52.3242 23.459 51.3398 23.6523 50.4258 24.0391C49.5117 24.4258 48.7031 24.9707 48 25.6738C47.332 26.3418 46.8047 27.1328 46.418 28.0469C46.0312 28.9609 45.8379 29.9453 45.8379 31V85H30.7031V31C30.7031 29.9453 30.5098 28.9609 30.123 28.0469C29.7363 27.1328 29.1914 26.3418 28.4883 25.6738C27.8203 24.9707 27.0293 24.4258 26.1152 24.0391C25.2012 23.6523 24.2168 23.459 23.1621 23.459C22.1074 23.459 21.123 23.6523 20.209 24.0391C19.2949 24.4258 18.4863 24.9707 17.7832 25.6738C17.1152 26.3418 16.5879 27.1328 16.2012 28.0469C15.8145 28.9609 15.6211 29.9453 15.6211 31V85H0.486328V31C0.486328 27.8711 1.06641 24.9355 2.22656 22.1934C3.42188 19.416 5.03906 17.0078 7.07812 14.9688C9.15234 12.8945 11.5605 11.2773 14.3027 10.1172C17.0801 8.92187 20.0332 8.32422 23.1621 8.32422C25.9746 8.32422 28.6816 8.83398 31.2832 9.85352C33.8848 10.8379 36.2227 12.2793 38.2969 14.1777C40.3711 12.2793 42.6914 10.8379 45.2578 9.85352C47.8594 8.83398 50.5664 8.32422 53.3789 8.32422C56.5078 8.32422 59.4434 8.92187 62.1855 10.1172C64.9629 11.2773 67.3711 12.8945 69.4102 14.9688C71.4844 17.0078 73.1016 19.416 74.2617 22.1934C75.457 24.9355 76.0547 27.8711 76.0547 31V85ZM109.91 71.1836C110.473 71.3594 111.035 71.4824 111.598 71.5527C112.16 71.5879 112.723 71.6055 113.285 71.6055C114.691 71.6055 116.045 71.4121 117.346 71.0254C118.646 70.6387 119.859 70.0938 120.984 69.3906C122.145 68.6523 123.164 67.7734 124.043 66.7539C124.957 65.6992 125.695 64.5391 126.258 63.2734L136.805 73.873C135.469 75.7715 133.922 77.4766 132.164 78.9883C130.441 80.5 128.561 81.7832 126.521 82.8379C124.518 83.8926 122.391 84.6836 120.141 85.2109C117.926 85.7734 115.641 86.0547 113.285 86.0547C109.312 86.0547 105.568 85.3164 102.053 83.8398C98.5723 82.3633 95.5137 80.3066 92.877 77.6699C90.2754 75.0332 88.2188 71.9043 86.707 68.2832C85.1953 64.627 84.4395 60.6191 84.4395 56.2598C84.4395 51.7949 85.1953 47.7168 86.707 44.0254C88.2188 40.334 90.2754 37.1875 92.877 34.5859C95.5137 31.9844 98.5723 29.9629 102.053 28.5215C105.568 27.0801 109.312 26.3594 113.285 26.3594C115.641 26.3594 117.943 26.6406 120.193 27.2031C122.443 27.7656 124.57 28.5742 126.574 29.6289C128.613 30.6836 130.512 31.9844 132.27 33.5312C134.027 35.043 135.574 36.748 136.91 38.6465L109.91 71.1836ZM117.293 41.4941C116.625 41.248 115.957 41.0898 115.289 41.0195C114.656 40.9492 113.988 40.9141 113.285 40.9141C111.316 40.9141 109.453 41.2832 107.695 42.0215C105.973 42.7246 104.461 43.7441 103.16 45.0801C101.895 46.416 100.893 48.0332 100.154 49.9316C99.416 51.7949 99.0469 53.9043 99.0469 56.2598C99.0469 56.7871 99.0645 57.3848 99.0996 58.0527C99.1699 58.7207 99.2578 59.4062 99.3633 60.1094C99.5039 60.7773 99.6621 61.4277 99.8379 62.0605C100.014 62.6934 100.242 63.2559 100.523 63.748L117.293 41.4941ZM185.689 78.4082C184.529 79.4629 183.281 80.4648 181.945 81.4141C180.645 82.3281 179.273 83.1367 177.832 83.8398C176.391 84.5078 174.896 85.0352 173.35 85.4219C171.838 85.8438 170.291 86.0547 168.709 86.0547C165.229 86.0547 161.959 85.4395 158.9 84.209C155.842 82.9785 153.152 81.2383 150.832 78.9883C148.547 76.7031 146.736 73.9434 145.4 70.709C144.1 67.4395 143.449 63.7832 143.449 59.7402V28.5215H157.793V59.7402C157.793 61.6387 158.074 63.3438 158.637 64.8555C159.234 66.332 160.025 67.5801 161.01 68.5996C161.994 69.6191 163.137 70.3926 164.438 70.9199C165.773 71.4473 167.197 71.7109 168.709 71.7109C170.186 71.7109 171.574 71.377 172.875 70.709C174.211 70.0059 175.371 69.0918 176.355 67.9668C177.34 66.8418 178.113 65.5762 178.676 64.1699C179.238 62.7285 179.52 61.252 179.52 59.7402V28.5215H193.916V85H190.436L185.689 78.4082ZM221.602 24.5137V54.7832H236.736C238.811 54.7832 240.762 54.3965 242.59 53.623C244.418 52.8145 246.018 51.7246 247.389 50.3535C248.76 48.9824 249.832 47.3828 250.605 45.5547C251.414 43.6914 251.818 41.7227 251.818 39.6484C251.818 37.5742 251.414 35.623 250.605 33.7949C249.832 31.9316 248.76 30.3145 247.389 28.9434C246.018 27.5723 244.418 26.5 242.59 25.7266C240.762 24.918 238.811 24.5137 236.736 24.5137H221.602ZM221.602 85H206.467V9.37891H236.736C239.514 9.37891 242.186 9.74805 244.752 10.4863C247.318 11.1895 249.709 12.209 251.924 13.5449C254.174 14.8457 256.213 16.4277 258.041 18.291C259.904 20.1191 261.486 22.1582 262.787 24.4082C264.123 26.6582 265.143 29.0664 265.846 31.6328C266.584 34.1992 266.953 36.8711 266.953 39.6484C266.953 43.7969 266.162 47.7168 264.58 51.4082C262.998 55.0645 260.836 58.2637 258.094 61.0059C255.352 63.748 252.135 65.9102 248.443 67.4922C244.787 69.0742 240.885 69.8652 236.736 69.8652H221.602V85ZM288.732 85H274.336V28.5215H277.816L282.562 35.2188C284.883 33.1094 287.52 31.4922 290.473 30.3672C293.426 29.207 296.484 28.627 299.648 28.627H312.357V42.9707H299.648C298.137 42.9707 296.713 43.252 295.377 43.8145C294.041 44.377 292.881 45.1504 291.896 46.1348C290.912 47.1191 290.139 48.2793 289.576 49.6152C289.014 50.9512 288.732 52.375 288.732 53.8867V85ZM372.58 56.2598C372.58 60.4785 371.824 64.416 370.312 68.0723C368.801 71.6934 366.744 74.8398 364.143 77.5117C361.541 80.1484 358.482 82.2402 354.967 83.7871C351.486 85.2988 347.742 86.0547 343.734 86.0547C339.762 86.0547 336.018 85.2988 332.502 83.7871C329.021 82.2402 325.963 80.1484 323.326 77.5117C320.725 74.8398 318.668 71.6934 317.156 68.0723C315.645 64.416 314.889 60.4785 314.889 56.2598C314.889 51.9707 315.645 47.998 317.156 44.3418C318.668 40.6855 320.725 37.5391 323.326 34.9023C325.963 32.2305 329.021 30.1387 332.502 28.627C336.018 27.1152 339.762 26.3594 343.734 26.3594C347.742 26.3594 351.486 27.0801 354.967 28.5215C358.482 29.9277 361.541 31.9492 364.143 34.5859C366.744 37.1875 368.801 40.334 370.312 44.0254C371.824 47.6816 372.58 51.7598 372.58 56.2598ZM358.078 56.2598C358.078 53.9395 357.691 51.8477 356.918 49.9844C356.18 48.0859 355.16 46.4688 353.859 45.1328C352.559 43.7617 351.029 42.7246 349.271 42.0215C347.549 41.2832 345.703 40.9141 343.734 40.9141C341.766 40.9141 339.902 41.2832 338.145 42.0215C336.422 42.7246 334.91 43.7617 333.609 45.1328C332.344 46.4688 331.342 48.0859 330.604 49.9844C329.865 51.8477 329.496 53.9395 329.496 56.2598C329.496 58.4395 329.865 60.4609 330.604 62.3242C331.342 64.1875 332.344 65.8047 333.609 67.1758C334.91 68.5469 336.422 69.6367 338.145 70.4453C339.902 71.2188 341.766 71.6055 343.734 71.6055C345.703 71.6055 347.549 71.2363 349.271 70.498C351.029 69.7598 352.559 68.7227 353.859 67.3867C355.16 66.0508 356.18 64.4336 356.918 62.5352C357.691 60.6367 358.078 58.5449 358.078 56.2598ZM398.209 85H383.812V42.8652H376.799V28.5215H383.812V25.832C383.812 22.3516 384.463 19.082 385.764 16.0234C387.1 12.9648 388.91 10.3105 391.195 8.06055C393.516 5.77539 396.205 3.98242 399.264 2.68164C402.322 1.3457 405.592 0.677734 409.072 0.677734H419.883V15.0215H409.072C407.525 15.0215 406.084 15.3027 404.748 15.8652C403.447 16.3926 402.305 17.1484 401.32 18.1328C400.371 19.082 399.615 20.2246 399.053 21.5605C398.49 22.8613 398.209 24.2852 398.209 25.832V28.5215H415.875V42.8652H398.209V85Z" fill="white"/>
</svg>
